<svg height="496pt" viewBox="-1 0 496 496.59017" width="496pt" xmlns="http://www.w3.org/2000/svg"><path d="m431.285156 189.117188-184.429687-50.304688-184.433594 50.304688v98.898437h368.863281zm0 0" fill="#ccc"/><path d="m246.855469 301.933594-130.609375-130.609375c-37.15625-37.136719-39.378906-96.648438-5.09375-136.457031 34.28125-39.808594 93.460937-46.4375 135.703125-15.203126 42.242187-31.234374 101.421875-24.605468 135.703125 15.203126 34.28125 39.808593 32.058594 99.320312-5.09375 136.457031zm0 0" fill="#ef5350"/><path d="m115.414062 170.414062c.289063.289063.527344.625.832032.910157l130.609375 130.609375 130.609375-130.609375c.300781-.285157.542968-.621094.832031-.910157l-131.441406 35.855469zm0 0" fill="#e53935"/><g fill="#fff"><path d="m262.855469 48.015625h32v32h-32zm0 0"/><path d="m326.855469 48.015625h32v32h-32zm0 0"/><path d="m326.855469 112.015625h32v32h-32zm0 0"/></g><path d="m246.855469 496.589844-192-52.351563v-188.222656h384v188.222656zm0 0" fill="#ffbf00"/><path d="m246.855469 256.015625v240.574219l192-52.351563v-188.222656zm0 0" fill="#ffac00"/><path d="m493.414062 313.359375-62.128906-124.242187-184.429687 50.320312-184.433594-50.320312-62.125 124.242187 198.253906 66.09375 48.304688-89.695313 48.304687 89.695313zm0 0" fill="#e5e5e5"/></svg>